<svg enable-background="new 0 0 1000 1000" viewBox="0 0 1000 1000" xmlns="http://www.w3.org/2000/svg">
<path d="m667 1001c-222.333344 0-444.166672 0-666 0 0-333.333313 0-666.666656 0-1000h1000v1000c-111.166687 0-222.333313 0-334 0m-527.37468-305.874268c-10.970657 10.939026-22.013076 21.807618-32.863792 32.86438-2.87571 2.930359-5.850418 6.122315-7.530212 9.769593-1.782097 3.869384-3.310273 8.597656-2.739182 12.638488.902893 6.388428 4.770783 11.716187 9.511437 16.426087 33.665985 33.447326 67.201156 67.026367 100.767089 100.574341 9.896073 9.890808 19.806611 19.768005 29.613449 29.746826 4.95369 5.040588 10.947678 8.477478 17.820679 8.657165 7.561814.197693 13.616928-4.194641 18.855759-9.443908 18.945923-18.98407 37.827209-38.033509 56.906799-56.882203 1.815155-1.793029 4.76001-3.061645 7.324738-3.36914 10.672851-1.279602 21.408508-2.023071 32.10733-3.100403 23.819092-2.398499 46.775452-8.557068 69.312988-16.354187 20.132935-6.965271 39.426056-15.821045 57.800721-26.635681 2.459167-1.447327 4.60791-2.635559 7.753418-.783325 24.247253 14.278198 49.925781 25.289734 76.943237 33.19458 26.797302 7.840515 54.128906 12.432739 82.024353 13.47821 3.95166.148071 6.872864 1.313111 9.66156 4.133362 18.974243 19.188538 38.033264 38.294373 57.187744 57.302979 5.385803 5.344726 11.854858 9.6109 19.70166 8.443359 6.53534-.972534 12.065186-4.769531 16.891724-9.633484 28.966308-29.191284 58.074341-58.242065 87.149292-87.3255 14.249206-14.253418 28.533691-28.471741 42.79364-42.714539 5.280823-5.274353 9.478332-11.389526 9.223633-19.020996-.245239-7.347901-4.532715-13.194824-9.650879-18.300232-15.804138-15.764771-31.26593-31.897217-47.590271-47.103638-6.39209-5.954284-7.829224-12.61206-8.737366-20.495605-2.098999-18.22284-4.049927-36.526978-7.550537-54.508118-4.460632-22.911987-12.369202-44.872497-22.01477-66.161133-13.253296-29.251587-29.80365-56.499023-51.106629-80.549316-13.902466-15.695343-28.950806-30.373261-43.360046-45.625794-1.451538-1.536468-2.594788-3.808929-2.916992-5.88916-1.269043-8.191681-1.421387-16.616363-3.322266-24.638489-4.920166-20.764129-9.255432-41.803894-16.158142-61.933258-15.167969-44.231445-39.506653-83.279724-70.869629-117.986663-1.998535-2.21167-3.374695-5.847916-3.406677-8.838868-.268799-25.159729-.482422-50.329589-.013794-75.483398.21759-11.678162-11.392334-22.761391-22.624695-22.713135-63.655151.273445-127.312103.129746-190.968445.134514-12.641998.000946-22.545105 9.882568-22.549591 22.497658-.009674 27.328888.086243 54.658569-.146698 81.985489-.024139 2.829712-1.276428 6.257339-3.138184 8.366592-14.641388 16.588059-28.190795 33.956696-39.795288 52.82782-27.269592 44.345703-43.804596 92.382172-49.958313 144.056702-.286377 2.404907-1.507446 5.124542-3.165741 6.867401-7.808227 8.20636-15.939087 16.10495-23.922241 24.145691-43.996261 44.313598-74.419693 96.485626-90.395401 156.907928-5.812103 21.982178-9.855179 44.305847-10.461548 67.126404-.213455 8.033508-2.072708 15.009338-9.075775 20.251831-4.751953 3.557434-8.578171 8.351379-13.318146 13.092773z" fill="transparent"/>
<path d="m139.875183 694.875488c4.490112-4.49115 8.31633-9.285095 13.068283-12.842529 7.003067-5.242493 8.86232-12.218323 9.075775-20.251831.606369-22.820557 4.649445-45.144226 10.461548-67.126404 15.975708-60.422302 46.39914-112.59433 90.395401-156.907928 7.983154-8.040741 16.114014-15.939331 23.922241-24.145691 1.658295-1.742859 2.879364-4.462494 3.165741-6.867401 6.153717-51.67453 22.688721-99.710999 49.958313-144.056702 11.604493-18.871124 25.1539-36.239761 39.795288-52.82782 1.861756-2.109253 3.114045-5.53688 3.138184-8.366592.232941-27.32692.137024-54.656601.146698-81.985489.004486-12.61509 9.907593-22.496712 22.549591-22.497658 63.656342-.004768 127.313294.138931 190.968445-.134514 11.232361-.048256 22.842285 11.034973 22.624695 22.713135-.468628 25.153809-.255005 50.323669.013794 75.483398.031982 2.990952 1.408142 6.627198 3.406677 8.838868 31.362976 34.706939 55.70166 73.755218 70.869629 117.986663 6.90271 20.129364 11.237976 41.169129 16.158142 61.933258 1.900879 8.022126 2.053223 16.446808 3.322266 24.638489.322204 2.080231 1.465454 4.352692 2.916992 5.88916 14.40924 15.252533 29.45758 29.930451 43.360046 45.625794 21.302979 24.050293 37.853333 51.297729 51.106629 80.549316 9.645568 21.288636 17.554138 43.249146 22.01477 66.161133 3.50061 17.98114 5.451538 36.285278 7.550537 54.508118.908142 7.883545 2.345276 14.541321 8.737366 20.495605 16.324341 15.206421 31.786133 31.338867 47.590271 47.103638 5.118164 5.105408 9.40564 10.952331 9.650879 18.300232.254699 7.63147-3.94281 13.746643-9.223633 19.020996-14.259949 14.242798-28.544434 28.461121-42.79364 42.714539-29.074951 29.083435-58.182984 58.134216-87.149292 87.3255-4.826538 4.863953-10.356384 8.66095-16.891724 9.633484-7.846802 1.167541-14.315857-3.098633-19.70166-8.443359-19.15448-19.008606-38.213501-38.114441-57.187744-57.302979-2.788696-2.820251-5.7099-3.985291-9.66156-4.133362-27.895447-1.045471-55.227051-5.637695-82.024353-13.47821-27.017456-7.904846-52.695984-18.916382-76.943237-33.19458-3.145508-1.852234-5.294251-.664002-7.753418.783325-18.374665 10.814636-37.667786 19.67041-57.800721 26.635681-22.537536 7.797119-45.493896 13.955688-69.312988 16.354187-10.698822 1.077332-21.434479 1.820801-32.10733 3.100403-2.564728.307495-5.509583 1.576111-7.324738 3.36914-19.07959 18.848694-37.960876 37.898133-56.906799 56.882203-5.238831 5.249267-11.293945 9.641601-18.855759 9.443908-6.873001-.179687-12.866989-3.616577-17.820679-8.657165-9.806838-9.978821-19.717376-19.856018-29.613449-29.746826-33.565933-33.547974-67.101104-67.127015-100.767089-100.574341-4.740654-4.7099-8.608544-10.037659-9.511437-16.426087-.571091-4.040832.957085-8.769104 2.739182-12.638488 1.679794-3.647278 4.654502-6.839234 7.530212-9.769593 10.850716-11.056762 21.893135-21.925354 33.113655-33.114624m384.126099-140.375488c.000549 12.666138-.121887 25.334229.079773 37.997192.057251 3.591187.596374 7.319519 1.713623 10.722535 3.693359 11.248962 15.018799 18.143432 26.039428 16.238037 12.115601-2.094727 20.225586-11.632874 20.231507-24.009278.029785-61.999633-.011353-123.999359.105408-185.998809.007019-3.733216.760864-7.587983 1.861145-11.173218 3.331848-10.856934 14.772644-17.296143 26.414489-15.203614 10.288147 1.849274 18.333069 11.733857 18.592407 22.270691.58075 23.594391 9.817261 43.074219 28.512024 57.684998 5.682679 4.441284 11.828675 8.368469 18.705811 9.915832 0-18.173522.827087-36.004943-.245483-53.721344-.965821-15.952911-2.921692-32.022064-6.379456-47.609924-6.490295-29.25885-17.555176-56.948944-32.683105-82.916626-12.792298-21.958618-28.216675-41.927231-45.88855-60.156586-6.068665-6.260162-9.274475-13.335708-9.13031-22.276489.306457-18.994949.083496-37.998443.077697-56.998428-.000488-1.620773-.000122-3.241562-.000122-5.049896-47.529052 0-94.58078 0-142.015136 0 0 2.087814.000457 3.886825-.000061 5.685836-.006073 21.833313.3302 43.676026-.267121 65.493149-.143615 5.245926-2.252319 11.272614-5.430511 15.432801-7.345703 9.615325-16.312653 17.97705-23.884278 27.437698-20.0177 25.011871-35.761169 52.552826-46.922332 82.621002-10.729737 28.905823-17.206116 58.806488-18.321411 89.593414-.862275 23.802704-.281098 47.660706-.194977 71.493561.042755 11.835022 11.017303 22.65741 23.014709 23.041382 13.57132.434204 24.890595-11.023499 24.983704-25.499939.100708-15.665985.016144-31.333099.030914-46.999725.010925-11.603943 9.935974-21.924286 21.614807-22.509064 13.943177-.69812 25.295349 10.407989 25.302796 24.876495.024353 47.166504-.032959 94.333039.02893 141.499482.021637 16.477539 17.076874 27.789978 32.3443 21.615966 10.042938-4.061218 15.693328-13.147277 15.697998-25.415161.017517-46-.001007-91.999969.03955-137.999939.002198-2.468353.049012-5.040588.708008-7.386688 3.104615-11.052246 14.292572-18.606567 24.96994-17.090546 11.804505 1.676087 20.265686 11.369904 20.277283 23.395264.032288 33.333283.014527 66.666626.016602 100.999939m-66.564759 203.520569c46.109162-22.256531 80.872132-58.255982 116.3974-95.468445-2.353637.356812-3.333252.409851-4.259765.659668-23.949951 6.458801-46.063965 3.08429-65.756348-12.529114-2.433075-1.929077-3.758453-1.451782-5.898895.229859-18.470429 14.51123-39.239289 18.33728-61.943482 13.130188-30.024017-6.885865-52.964752-35.420044-52.976532-66.0271-.003143-8.166199.037751-16.332642-.031799-24.498291-.014526-1.708191-.426819-3.412964-.690124-5.375183-2.385224.590698-4.143708.967895-5.86847 1.462585-13.204834 3.787354-26.412475 3.078797-39.248474-1.126159-29.830566-9.772095-49.093658-36.869202-49.159607-68.358368-.013092-6.249634-.001861-12.499359-.001861-18.749024-.376831-.181762-.753693-.363556-1.130524-.545318-3.861145 4.424896-7.850037 8.745453-11.563019 13.291382-27.043731 33.1109-46.229553 70.262451-57.354095 111.577148-6.462067 23.999145-10.06987 48.388489-10.212174 73.241272-.058517 10.220032-3.455047 18.477844-11.023147 25.663086-13.772126 13.075134-26.945725 26.780884-40.353806 40.238769-.904602.907898-1.682388 1.942139-2.19017 2.534119 33.605575 33.669983 66.965057 67.093445 101.124939 101.318787.925049-1.303833 1.722107-2.839905 2.88797-4.007935 15.42102-15.44989 30.892273-30.849609 46.354797-46.257995 4.584473-4.568421 9.744385-8.05365 16.467438-8.395203 7.282318-.369934 14.597351-.361084 21.846649-1.055176 11.886627-1.138061 23.866394-2.005554 35.567139-4.241577 27.269531-5.211304 53.517822-13.757568 79.01596-26.711975m306.247498-206.207031c-12.595581-26.138428-28.876526-49.70514-49.079102-70.721375-.612976 6.996491-.496521 13.75415-.638244 20.506409-.260987 12.43457-10.357056 22.20105-22.735291 22.423889-19.321228.347778-37.518005-3.980774-54.595703-12.933746-5.533813-2.901184-10.849609-6.218293-17.009643-9.775055-.248169 2.470581-.597962 4.342132-.600098 6.21408-.034119 30.495698-.023377 60.991364-.026856 91.487092-.000122 1.49945.427491 3.21228-.144897 4.457763-1.620361 3.525818-.055298 6.194947 1.402527 9.252259 12.932922 27.121459 11.967041 53.995666-7.766113 76.717346-19.376954 22.311401-41.78125 41.996093-62.916321 62.773193-1.6922 1.663452-3.846192 2.857239-6.170838 4.549683 2.074891 1.443298 2.569947 1.892456 3.14679 2.17395 41.469665 20.235412 85.290893 30.618591 131.419739 30.978516 7.529846.058776 13.584411 2.675537 18.755249 7.772827 9.017456 8.889038 18.014038 17.801513 26.886169 26.834961 7.895447 8.038818 15.610657 16.25476 23.041077 24.012146 34.380676-34.377442 67.765076-67.758606 101.705261-101.695618-1.150513-.932739-2.547607-1.873413-3.716492-3.042297-13.784362-13.785218-27.48468-27.654908-41.320251-41.388367-5.045593-5.008362-8.268799-10.646057-8.587708-17.932739-.877624-20.055848-2.223144-40.017517-6.291198-59.803711-5.167115-25.131897-13.128846-49.191712-24.758057-72.861206z" fill="#1d5486"/>
<g fill="transparent">
<path d="m524.001282 554c-.002075-33.833313.015686-67.166656-.016602-100.499939-.011597-12.02536-8.472778-21.719177-20.277283-23.395264-10.677368-1.516021-21.865325 6.0383-24.96994 17.090546-.658996 2.3461-.70581 4.918335-.708008 7.386688-.040557 45.99997-.022033 91.999939-.03955 137.999939-.00467 12.267884-5.65506 21.353943-15.697998 25.415161-15.267426 6.174012-32.322663-5.138427-32.3443-21.615966-.061889-47.166443-.004577-94.332978-.02893-141.499482-.007447-14.468506-11.359619-25.574615-25.302796-24.876495-11.678833.584778-21.603882 10.905121-21.614807 22.509064-.01477 15.666626.069794 31.33374-.030914 46.999725-.093109 14.47644-11.412384 25.934143-24.983704 25.499939-11.997406-.383972-22.971954-11.20636-23.014709-23.041382-.086121-23.832855-.667298-47.690857.194977-71.493561 1.115295-30.786926 7.591674-60.687591 18.321411-89.593414 11.161163-30.068176 26.904632-57.609131 46.922332-82.621002 7.571625-9.460648 16.538575-17.822373 23.884278-27.437698 3.178192-4.160187 5.286896-10.186875 5.430511-15.432801.597321-21.817123.261048-43.659836.267121-65.493149.000518-1.799011.000061-3.598022.000061-5.685836h142.015136c0 1.808334-.000366 3.429123.000122 5.049896.005799 18.999985.22876 38.003479-.077697 56.998428-.144165 8.940781 3.061645 16.016327 9.13031 22.276489 17.671875 18.229355 33.096252 38.197968 45.88855 60.156586 15.127929 25.967682 26.19281 53.657776 32.683105 82.916626 3.457764 15.58786 5.413635 31.657013 6.379456 47.609924 1.07257 17.716401.245483 35.547822.245483 53.721344-6.877136-1.547363-13.023132-5.474548-18.705811-9.915832-18.694763-14.610779-27.931274-34.090607-28.512024-57.684998-.259338-10.536834-8.30426-20.421417-18.592407-22.270691-11.641845-2.092529-23.082641 4.34668-26.414489 15.203614-1.100281 3.585235-1.854126 7.440002-1.861145 11.173218-.116761 61.99945-.075623 123.999176-.105408 185.998809-.005921 12.376404-8.115906 21.914551-20.231507 24.009278-11.020629 1.905395-22.346069-4.989075-26.039428-16.238037-1.117249-3.403016-1.656372-7.131348-1.713623-10.722535-.20166-12.662963-.079224-25.331054-.079773-38.497192z"/>
<path d="m457.088287 758.15979c-25.149902 12.815186-51.398193 21.36145-78.667724 26.572754-11.700745 2.236023-23.680512 3.103516-35.567139 4.241577-7.249298.694092-14.564331.685242-21.846649 1.055176-6.723053.341553-11.882965 3.826782-16.467438 8.395203-15.462524 15.408386-30.933777 30.808105-46.354797 46.257995-1.165863 1.16803-1.962921 2.704102-2.88797 4.007935-34.159882-34.225342-67.519364-67.648804-101.124939-101.318787.507782-.59198 1.285568-1.626221 2.19017-2.534119 13.408081-13.457885 26.58168-27.163635 40.353806-40.238769 7.5681-7.185242 10.96463-15.443054 11.023147-25.663086.142304-24.852783 3.750107-49.242127 10.212174-73.241272 11.124542-41.314697 30.310364-78.466248 57.354095-111.577148 3.712982-4.545929 7.701874-8.866486 11.563019-13.291382.376831.181762.753693.363556 1.130524.545318 0 6.249665-.011231 12.49939.001861 18.749024.065949 31.489166 19.329041 58.586273 49.159607 68.358368 12.835999 4.204956 26.04364 4.913513 39.248474 1.126159 1.724762-.49469 3.483246-.871887 5.86847-1.462585.263305 1.962219.675598 3.666992.690124 5.375183.06955 8.165649.028656 16.332092.031799 24.498291.01178 30.607056 22.952515 59.141235 52.976532 66.0271 22.704193 5.207092 43.473053 1.381042 61.943482-13.130188 2.140442-1.681641 3.46582-2.158936 5.898895-.229859 19.692383 15.613404 41.806397 18.987915 65.756348 12.529114.926513-.249817 1.906128-.302856 4.259765-.659668-35.525268 37.212463-70.288238 73.211914-116.745636 95.607666z"/>
<path d="m763.870422 552.142334c11.44281 23.340698 19.404541 47.400513 24.571656 72.53241 4.068054 19.786194 5.413574 39.747863 6.291198 59.803711.318909 7.286682 3.542115 12.924377 8.587708 17.932739 13.835571 13.733459 27.535889 27.603149 41.320251 41.388367 1.168885 1.168884 2.565979 2.109558 3.716492 3.042297-33.940185 33.937012-67.324585 67.318176-101.705261 101.695618-7.43042-7.757386-15.14563-15.973328-23.041077-24.012146-8.872131-9.033448-17.868713-17.945923-26.886169-26.834961-5.170838-5.09729-11.225403-7.714051-18.755249-7.772827-46.128846-.359925-89.950074-10.743104-131.419739-30.978516-.576843-.281494-1.071899-.730652-3.14679-2.17395 2.324646-1.692444 4.478638-2.886231 6.170838-4.549683 21.135071-20.7771 43.539367-40.461792 62.916321-62.773193 19.733154-22.72168 20.699035-49.595887 7.766113-76.717346-1.457825-3.057312-3.022888-5.726441-1.402527-9.252259.572388-1.245483.144775-2.958313.144897-4.457763.003479-30.495728-.007263-60.991394.026856-91.487092.002136-1.871948.351929-3.743499.600098-6.21408 6.160034 3.556762 11.47583 6.873871 17.009643 9.775055 17.077698 8.952972 35.274475 13.281524 54.595703 12.933746 12.378235-.222839 22.474304-9.989319 22.735291-22.423889.141723-6.752259.025268-13.509918.638244-20.506409 20.202576 21.016235 36.483521 44.582947 49.265503 71.050171z"/></g>
</svg>